<svg width="282" height="60" viewBox="0 0 282 60" fill="none" xmlns="http://www.w3.org/2000/svg">
<path d="M0.768 55.344V40.8H7.488L10.944 40.896H36.864L38.832 40.8H48.528V55.344H40.896V48H8.4V55.344H0.768ZM8.496 12H42.24V45.408H34.128V15.456L37.776 19.104H12.864L16.272 16.464C16.464 18.064 16.592 19.648 16.656 21.216C16.72 22.784 16.752 24.256 16.752 25.632C16.752 29.536 16.448 32.848 15.84 35.568C15.232 38.256 14.32 40.304 13.104 41.712C11.888 43.088 10.384 43.776 8.592 43.776L5.232 40.944C6.576 39.408 7.568 37.248 8.208 34.464C8.88 31.648 9.216 28.144 9.216 23.952C9.216 22.096 9.152 20.16 9.024 18.144C8.896 16.128 8.72 14.08 8.496 12ZM67.4633 48.72C64.2313 48.72 61.3353 48.128 58.7753 46.944C56.2473 45.728 54.2473 44.032 52.7753 41.856C51.3353 39.68 50.6152 37.152 50.6152 34.272C50.6152 31.424 51.3033 28.928 52.6793 26.784C54.0873 24.64 56.0073 22.976 58.4393 21.792C60.8713 20.576 63.6393 19.968 66.7433 19.968C69.9113 19.968 72.6313 20.672 74.9033 22.08C77.1753 23.456 78.9193 25.408 80.1353 27.936C81.3833 30.464 82.0073 33.44 82.0073 36.864H57.0473V31.536H77.6873L74.5673 33.456C74.4392 31.856 74.0393 30.496 73.3673 29.376C72.7273 28.256 71.8473 27.392 70.7273 26.784C69.6073 26.176 68.2953 25.872 66.7913 25.872C65.1593 25.872 63.7353 26.208 62.5193 26.88C61.3353 27.52 60.4073 28.432 59.7353 29.616C59.0953 30.768 58.7753 32.128 58.7753 33.696C58.7753 35.584 59.1913 37.2 60.0233 38.544C60.8553 39.888 62.0713 40.912 63.6713 41.616C65.2713 42.32 67.2073 42.672 69.4793 42.672C71.5273 42.672 73.5913 42.384 75.6713 41.808C77.7513 41.2 79.6233 40.352 81.2873 39.264V44.64C79.4953 45.92 77.3993 46.928 74.9993 47.664C72.6313 48.368 70.1193 48.72 67.4633 48.72ZM86.6959 20.688H94.7119V29.376L94.3759 30.432V37.008L94.7119 38.976V55.92H86.6959V20.688ZM91.9279 34.368C92.4719 31.456 93.4159 28.928 94.7599 26.784C96.1359 24.608 97.8479 22.928 99.8959 21.744C101.976 20.56 104.28 19.968 106.808 19.968C109.496 19.968 111.848 20.576 113.864 21.792C115.912 22.976 117.512 24.656 118.664 26.832C119.816 28.976 120.392 31.488 120.392 34.368C120.392 37.216 119.816 39.728 118.664 41.904C117.512 44.048 115.912 45.728 113.864 46.944C111.848 48.128 109.496 48.72 106.808 48.72C104.248 48.72 101.944 48.128 99.8959 46.944C97.8799 45.76 96.1839 44.096 94.8079 41.952C93.4319 39.776 92.4719 37.248 91.9279 34.368ZM112.28 34.368C112.28 32.768 111.944 31.36 111.272 30.144C110.632 28.896 109.736 27.936 108.584 27.264C107.432 26.56 106.104 26.208 104.6 26.208C103.096 26.208 101.672 26.56 100.328 27.264C98.9839 27.936 97.7999 28.896 96.7759 30.144C95.7839 31.36 94.9999 32.768 94.4239 34.368C94.9999 35.968 95.7839 37.376 96.7759 38.592C97.7999 39.808 98.9839 40.768 100.328 41.472C101.672 42.144 103.096 42.48 104.6 42.48C106.104 42.48 107.432 42.144 108.584 41.472C109.736 40.768 110.632 39.808 111.272 38.592C111.944 37.376 112.28 35.968 112.28 34.368ZM140.541 48.72C137.309 48.72 134.413 48.128 131.853 46.944C129.325 45.728 127.325 44.032 125.853 41.856C124.413 39.68 123.693 37.152 123.693 34.272C123.693 31.424 124.381 28.928 125.757 26.784C127.165 24.64 129.085 22.976 131.517 21.792C133.949 20.576 136.717 19.968 139.821 19.968C142.989 19.968 145.709 20.672 147.981 22.08C150.253 23.456 151.997 25.408 153.213 27.936C154.461 30.464 155.085 33.44 155.085 36.864H130.125V31.536H150.765L147.645 33.456C147.517 31.856 147.117 30.496 146.445 29.376C145.805 28.256 144.925 27.392 143.805 26.784C142.685 26.176 141.373 25.872 139.869 25.872C138.237 25.872 136.813 26.208 135.597 26.88C134.413 27.52 133.485 28.432 132.813 29.616C132.173 30.768 131.853 32.128 131.853 33.696C131.853 35.584 132.269 37.2 133.101 38.544C133.933 39.888 135.149 40.912 136.749 41.616C138.349 42.32 140.285 42.672 142.557 42.672C144.605 42.672 146.669 42.384 148.749 41.808C150.829 41.2 152.701 40.352 154.365 39.264V44.64C152.573 45.92 150.477 46.928 148.077 47.664C145.709 48.368 143.197 48.72 140.541 48.72ZM159.055 48L160.591 34.368L159.055 20.688H180.079C182.703 20.688 184.783 21.312 186.319 22.56C187.855 23.776 188.623 25.44 188.623 27.552C188.623 29.536 187.855 31.152 186.319 32.4C184.783 33.616 182.639 34.336 179.887 34.56L180.463 33.216C183.663 33.312 186.095 33.984 187.759 35.232C189.455 36.448 190.303 38.16 190.303 40.368C190.303 42.736 189.439 44.608 187.711 45.984C186.015 47.328 183.679 48 180.703 48H159.055ZM166.783 46.224L163.711 42.816H178.255C179.631 42.816 180.639 42.544 181.279 42C181.919 41.424 182.239 40.624 182.239 39.6C182.239 38.672 181.887 37.92 181.183 37.344C180.479 36.736 179.327 36.432 177.727 36.432H165.343V31.872H176.671C178.015 31.872 178.991 31.6 179.599 31.056C180.239 30.512 180.559 29.776 180.559 28.848C180.559 27.984 180.271 27.28 179.695 26.736C179.151 26.192 178.255 25.92 177.007 25.92H163.759L166.783 22.512L168.271 34.368L166.783 46.224ZM194.883 48V20.688H202.851V45.936L200.259 42.24H210.915C212.387 42.24 213.523 41.888 214.323 41.184C215.123 40.448 215.523 39.456 215.523 38.208C215.523 36.896 215.123 35.888 214.323 35.184C213.523 34.448 212.387 34.08 210.915 34.08H200.307V28.56H212.115C214.451 28.56 216.467 28.976 218.163 29.808C219.891 30.608 221.235 31.744 222.195 33.216C223.155 34.656 223.635 36.352 223.635 38.304C223.635 40.224 223.155 41.92 222.195 43.392C221.235 44.864 219.907 46 218.211 46.8C216.515 47.6 214.515 48 212.211 48H194.883Z" fill="#030712"/>
<path d="M231 15C231 9.47715 235.477 5 241 5H272C277.523 5 282 9.47715 282 15V45C282 50.5228 277.523 55 272 55H241C235.477 55 231 50.5228 231 45V15Z" fill="#30B04B"/>
<path d="M266.056 28.464V34.32H250.6L250.552 34.176C247.896 34.176 245.576 33.728 243.592 32.832C241.64 31.904 240.104 30.624 238.984 28.992C237.864 27.328 237.304 25.392 237.304 23.184C237.304 20.944 237.864 18.992 238.984 17.328C240.104 15.664 241.64 14.368 243.592 13.44C245.576 12.48 247.896 12 250.552 12H271.672V48H263.512V14.256L267.16 17.952H251.608C249.72 17.952 248.232 18.416 247.144 19.344C246.056 20.272 245.512 21.552 245.512 23.184C245.512 24.816 246.056 26.112 247.144 27.072C248.232 28 249.72 28.464 251.608 28.464H266.056ZM259.096 31.152L245.992 48H236.488L249.832 31.152H259.096Z" fill="white"/>
</svg>
