<svg width="60" height="60" viewBox="0 0 60 60" fill="none" xmlns="http://www.w3.org/2000/svg">
<path d="M30 55C29.4167 55 28.9167 54.8333 28.5 54.5C28.0833 54.1667 27.7708 53.7292 27.5625 53.1875C26.7708 50.8542 25.7708 48.6667 24.5625 46.625C23.3958 44.5833 21.75 42.1875 19.625 39.4375C17.5 36.6875 15.7708 34.0625 14.4375 31.5625C13.1458 29.0625 12.5 26.0417 12.5 22.5C12.5 17.625 14.1875 13.5 17.5625 10.125C20.9792 6.70833 25.125 5 30 5C34.875 5 39 6.70833 42.375 10.125C45.7917 13.5 47.5 17.625 47.5 22.5C47.5 26.2917 46.7708 29.4583 45.3125 32C43.8958 34.5 42.25 36.9792 40.375 39.4375C38.125 42.4375 36.4167 44.9375 35.25 46.9375C34.125 48.8958 33.1875 50.9792 32.4375 53.1875C32.2292 53.7708 31.8958 54.2292 31.4375 54.5625C31.0208 54.8542 30.5417 55 30 55ZM30 46.0625C30.7083 44.6458 31.5 43.25 32.375 41.875C33.2917 40.5 34.625 38.6667 36.375 36.375C38.1667 34.0417 39.625 31.8958 40.75 29.9375C41.9167 27.9375 42.5 25.4583 42.5 22.5C42.5 19.0417 41.2708 16.1042 38.8125 13.6875C36.3958 11.2292 33.4583 10 30 10C26.5417 10 23.5833 11.2292 21.125 13.6875C18.7083 16.1042 17.5 19.0417 17.5 22.5C17.5 25.4583 18.0625 27.9375 19.1875 29.9375C20.3542 31.8958 21.8333 34.0417 23.625 36.375C25.375 38.6667 26.6875 40.5 27.5625 41.875C28.4792 43.25 29.2917 44.6458 30 46.0625ZM30 28.75C31.75 28.75 33.2292 28.1458 34.4375 26.9375C35.6458 25.7292 36.25 24.25 36.25 22.5C36.25 20.75 35.6458 19.2708 34.4375 18.0625C33.2292 16.8542 31.75 16.25 30 16.25C28.25 16.25 26.7708 16.8542 25.5625 18.0625C24.3542 19.2708 23.75 20.75 23.75 22.5C23.75 24.25 24.3542 25.7292 25.5625 26.9375C26.7708 28.1458 28.25 28.75 30 28.75Z" fill="#121212"/>
</svg>
