<svg width="75" height="75" viewBox="0 0 75 75" fill="none" xmlns="http://www.w3.org/2000/svg">
<path d="M73.9976 40.0943C72.2352 37.5381 68.7264 36.894 66.1761 38.659L62.1707 41.4301L48.5711 32.0206V22.063H53.7112C60.5897 22.063 66.1853 16.4541 66.1853 9.56062V3.67716C66.1853 1.64955 64.5396 0 62.5169 0H56.6466C52.39 0 48.626 2.14942 46.3738 5.42094C44.1222 2.14942 40.3582 0 36.1016 0H30.2313C28.2086 0 26.5629 1.64955 26.5629 3.67716V9.56062C26.5629 16.4541 32.1585 22.063 39.0364 22.063H44.1685V31.7046L30.5294 39.3313L25.0225 37.8328C18.8118 36.135 12.3247 39.4536 10.0611 45.5049L0.140748 72.0183C-0.286117 73.1594 0.290666 74.4309 1.42878 74.8589C2.56804 75.287 3.83605 74.7078 4.26292 73.5679L14.1827 47.0544C15.6555 43.1182 19.8172 40.9843 23.8667 42.0909C24.9087 42.3747 33.2291 44.6384 34.413 44.9608C36.4918 45.5267 37.6362 47.7462 36.8981 49.7709L36.7081 50.2921L27.661 47.8536C26.4868 47.5371 25.2795 48.2346 24.9636 49.4113C24.6483 50.588 25.3441 51.798 26.5177 52.1146L45.6557 57.2735C46.28 57.4418 46.946 57.3264 47.4776 56.9586C47.8312 56.7139 68.3282 42.5315 68.6772 42.2908C69.2306 41.9076 69.9927 42.0472 70.375 42.6022C70.7332 43.1216 70.641 43.8214 70.161 44.2305L46.6582 64.2492L25.9421 59.6085C24.8343 59.3597 23.7213 59.9958 23.3694 61.0765L19.7737 72.108C19.3966 73.2663 20.0272 74.5119 21.183 74.89C22.3406 75.2686 23.5817 74.6349 23.9588 73.4783L26.9331 64.3515L46.7681 68.7945C47.4415 68.945 48.1476 68.7715 48.6735 68.3228L73.0117 47.5928C75.2227 45.71 75.6461 42.4861 73.9976 40.0943ZM56.6466 4.41259H61.7827V9.56062C61.7827 14.0215 58.1618 17.6504 53.7112 17.6504H51.6885L56.7353 12.5914C57.5953 11.7301 57.5953 10.3328 56.7353 9.47156C55.8759 8.60973 54.482 8.60973 53.6225 9.47156L48.5751 14.53V12.5023C48.5751 8.04149 52.196 4.41259 56.6466 4.41259ZM30.9649 9.56062V4.41259H36.1016C40.5516 4.41259 44.1725 8.04149 44.1725 12.5023V14.53L39.1257 9.47156C38.2657 8.60973 36.8718 8.60973 36.0123 9.47156C35.1529 10.3328 35.1529 11.7296 36.0123 12.5914L41.0597 17.6504H39.0364C34.5858 17.6504 30.9649 14.0215 30.9649 9.56062ZM45.8148 52.7471L40.9756 51.4423C42.5944 47.001 40.3811 42.6275 36.5244 41.0319L46.1037 35.6754L58.2963 44.1116L45.8148 52.7471Z" fill="black"/>
</svg>
