<svg width="39" height="35" viewBox="0 0 39 35" fill="none" xmlns="http://www.w3.org/2000/svg">
<path d="M19.5 0C8.73112 0 0 7.83233 0 17.4926C0 27.153 8.73112 34.9853 19.5 34.9853C30.2689 34.9853 39 27.153 39 17.4926C39 7.83233 30.2689 0 19.5 0ZM29.0777 11.9839L25.8765 25.5116C25.6409 26.4707 25.0039 26.704 24.115 26.2521L19.24 23.0305L16.8902 25.0626C16.6628 25.325 16.3101 25.4926 15.9152 25.4926C15.912 25.4926 15.9104 25.4926 15.9071 25.4926L16.2533 21.0407L25.2882 13.7201C25.6783 13.4096 25.2005 13.2332 24.6821 13.5437L13.52 19.8498L8.71 18.5028C7.67 18.2069 7.64075 17.5699 8.92937 17.1122L27.7241 10.6137C28.5984 10.328 29.3589 10.8003 29.0761 11.9854L29.0777 11.9839Z" fill="white"/>
</svg>
