<svg width="103" height="75" viewBox="0 0 103 75" fill="none" xmlns="http://www.w3.org/2000/svg">
<path d="M22.0714 48.2057C24.8982 48.205 27.6383 49.271 29.8281 51.223C32.0178 53.1751 33.5227 55.8935 34.0881 58.918H68.6667V5.35618H14.7143C12.1126 5.35618 9.61755 6.4848 7.7779 8.49376C5.93826 10.5027 4.90476 13.2275 4.90476 16.0686V58.918H10.0548C10.6201 55.8935 12.125 53.1751 14.3148 51.223C16.5046 49.271 19.2447 48.205 22.0714 48.2057ZM22.0714 74.9866C19.2447 74.9872 16.5046 73.9213 14.3148 71.9692C12.125 70.0171 10.6201 67.2988 10.0548 64.2742H0V16.0686C0 11.8069 1.55025 7.71981 4.30971 4.70637C7.06918 1.69293 10.8118 0 14.7143 0H68.6667C69.9675 0 71.215 0.564312 72.1349 1.56879C73.0547 2.57327 73.5714 3.93564 73.5714 5.35618V16.0686H88.2857L103 37.4933V64.2742H92.9452C92.3824 67.3012 90.8785 70.0227 88.6885 71.9774C86.4985 73.9322 83.757 75 80.9286 75C78.1001 75 75.3586 73.9322 73.1686 71.9774C70.9786 70.0227 69.4748 67.3012 68.9119 64.2742H34.0881C33.5227 67.2988 32.0178 70.0171 29.8281 71.9692C27.6383 73.9213 24.8982 74.9872 22.0714 74.9866ZM22.0714 53.5618C20.1202 53.5618 18.2489 54.4083 16.8691 55.915C15.4894 57.4217 14.7143 59.4653 14.7143 61.5961C14.7143 63.7269 15.4894 65.7705 16.8691 67.2772C18.2489 68.7839 20.1202 69.6304 22.0714 69.6304C24.0227 69.6304 25.894 68.7839 27.2737 67.2772C28.6534 65.7705 29.4286 63.7269 29.4286 61.5961C29.4286 59.4653 28.6534 57.4217 27.2737 55.915C25.894 54.4083 24.0227 53.5618 22.0714 53.5618ZM80.9286 48.2057C83.7553 48.205 86.4954 49.271 88.6852 51.223C90.875 53.1751 92.3799 55.8935 92.9452 58.918H98.0952V39.2073L96.9181 37.4933H73.5714V50.8837C75.6314 49.2233 78.1819 48.2057 80.9286 48.2057ZM80.9286 53.5618C78.9773 53.5618 77.106 54.4083 75.7263 55.915C74.3466 57.4217 73.5714 59.4653 73.5714 61.5961C73.5714 63.7269 74.3466 65.7705 75.7263 67.2772C77.106 68.7839 78.9773 69.6304 80.9286 69.6304C82.8798 69.6304 84.7511 68.7839 86.1309 67.2772C87.5106 65.7705 88.2857 63.7269 88.2857 61.5961C88.2857 59.4653 87.5106 57.4217 86.1309 55.915C84.7511 54.4083 82.8798 53.5618 80.9286 53.5618ZM73.5714 21.4247V32.1371H93.1905L85.8333 21.4247H73.5714Z" fill="#0A0A0A"/>
</svg>
