<svg width="32" height="32" viewBox="0 0 32 32" fill="none" xmlns="http://www.w3.org/2000/svg">
<path d="M18.7212 9.29414L7.29022 14.3246C6.8574 14.5147 6.48809 14.8248 6.22602 15.2182C5.96395 15.6116 5.82009 16.0719 5.81147 16.5445C5.80286 17.0171 5.92984 17.4824 6.1774 17.8851C6.42496 18.2878 6.78272 18.6111 7.20833 18.8168L10.9732 20.6691L12.957 24.3779C13.1787 24.7987 13.5171 25.1467 13.9315 25.3801C14.3459 25.6136 14.8189 25.7226 15.2937 25.6941C15.9051 25.6583 16.4815 25.397 16.9114 24.9608C17.1365 24.7257 17.3131 24.4486 17.431 24.1452L22.0123 12.4859C22.1893 12.0304 22.2274 11.5328 22.1218 11.0557C22.0162 10.5785 21.7717 10.1434 21.4191 9.8051C21.0665 9.46681 20.6216 9.24052 20.1405 9.15479C19.6595 9.06907 19.1638 9.12774 18.716 9.32341L18.7212 9.29414ZM15.9016 23.5121C15.8442 23.6586 15.7461 23.7856 15.6188 23.8781C15.4916 23.9707 15.3405 24.0249 15.1835 24.0343C15.033 24.0408 14.8837 24.0061 14.7516 23.9338C14.6196 23.8615 14.5098 23.7544 14.4343 23.6241L12.5843 20.1809L20.4221 12.0115L15.9016 23.5121ZM11.3943 19.0392L7.88408 17.374C7.75082 17.304 7.63927 17.1988 7.56156 17.0698C7.48384 16.9408 7.44291 16.7931 7.44321 16.6425C7.43819 16.5302 7.45621 16.418 7.49615 16.3129C7.5361 16.2077 7.59712 16.1119 7.67548 16.0312C7.75216 15.9516 7.84406 15.8882 7.94571 15.8448L19.2321 10.8698L11.3943 19.0392Z" fill="#278640"/>
</svg>
