<svg width="77" height="75" viewBox="0 0 77 75" fill="none" xmlns="http://www.w3.org/2000/svg">
<path d="M0.0122318 54.6002C0.733245 54.5874 1.45421 54.5783 2.17532 54.5722C2.41961 54.5697 2.6639 54.5662 2.90816 54.5618C5.76192 54.5109 8.24473 54.998 10.4076 56.8799C10.8863 57.343 11.3266 57.834 11.7544 58.3402C11.8493 58.2313 11.9443 58.1224 12.0421 58.0102C13.6832 56.1897 15.4647 54.9985 17.9813 54.6002C18.3992 54.5866 18.8176 54.5819 19.2357 54.5836C19.3529 54.5839 19.4701 54.5841 19.5909 54.5844C19.9625 54.5853 20.334 54.5874 20.7056 54.5896C20.9587 54.5905 21.2118 54.5912 21.4648 54.5919C22.0828 54.5938 22.7007 54.5967 23.3187 54.6002C23.3321 55.265 23.3416 55.9296 23.348 56.5945C23.3519 56.9291 23.3587 57.2638 23.3656 57.5984C23.3882 60.4337 22.6207 62.6762 20.5562 64.751C18.352 66.7008 16.1751 67.0101 13.1777 67.0101C13.1777 68.7492 13.1777 70.4883 13.1777 72.28C21.045 72.28 28.9122 72.28 37.0179 72.28C37.0179 70.5409 37.0179 68.8019 37.0179 67.0101C36.1372 67.0101 35.2565 67.0101 34.3492 67.0101C31.7155 66.4276 29.5653 65.1738 28.0778 62.9833C26.9823 61.0716 26.7771 59.2287 26.8324 57.0971C26.836 56.8533 26.8392 56.6094 26.8421 56.3656C26.8499 55.7771 26.8621 55.1887 26.8769 54.6002C27.5946 54.5831 28.3123 54.571 29.0302 54.5629C29.2733 54.5595 29.5164 54.5549 29.7594 54.5489C32.812 54.476 35.1524 55.265 37.4286 57.1993C38.2632 58.0061 38.2632 58.0061 38.2632 58.5102C38.3807 58.5102 38.4981 58.5102 38.6191 58.5102C38.6937 58.3593 38.6937 58.3593 38.7699 58.2054C39.7599 56.3936 41.805 55.3688 43.7785 54.7702C44.5022 54.6009 45.1785 54.5806 45.9225 54.5836C46.0397 54.5839 46.1569 54.5841 46.2777 54.5844C46.6492 54.5853 47.0208 54.5874 47.3923 54.5896C47.6454 54.5905 47.8985 54.5912 48.1516 54.5919C48.7695 54.5938 49.3875 54.5967 50.0054 54.6002C50.0233 55.3103 50.0361 56.0202 50.0445 56.7304C50.048 56.9709 50.0529 57.2114 50.0591 57.4519C50.1302 60.2652 49.4253 62.5685 47.3923 64.6726C45.1318 66.7033 42.9257 67.0101 39.8645 67.0101C39.8645 68.7492 39.8645 70.4883 39.8645 72.28C47.7317 72.28 55.599 72.28 63.7046 72.28C63.7046 70.5409 63.7046 68.8019 63.7046 67.0101C62.824 67.0101 61.9433 67.0101 61.0359 67.0101C58.5771 66.4662 56.6578 65.4174 55.1649 63.4401C53.81 61.2618 53.5077 59.4853 53.5414 56.9696C53.5432 56.739 53.5448 56.5085 53.5463 56.278C53.5504 55.7187 53.5563 55.1595 53.5637 54.6002C54.2814 54.5831 54.999 54.571 55.717 54.5629C55.9601 54.5595 56.2031 54.5549 56.4462 54.5489C59.5798 54.474 61.914 55.2804 64.2092 57.289C64.555 57.6224 64.8459 57.9568 65.1279 58.3402C65.2287 58.2166 65.2287 58.2166 65.3315 58.0905C66.9263 56.2348 69.024 54.9368 71.5327 54.6002C72.4562 54.5606 73.3775 54.5679 74.3015 54.579C74.5513 54.5807 74.8012 54.5822 75.051 54.5836C75.6574 54.5876 76.2637 54.5932 76.8701 54.6002C76.9901 61.4806 76.9901 61.4806 74.5572 64.1201C74.4641 64.2229 74.371 64.3257 74.2751 64.4316C72.9461 65.7998 71.001 66.8908 69.0251 67.0378C68.1959 67.066 67.3829 67.0375 66.5512 67.0101C66.5512 68.7492 66.5512 70.4883 66.5512 72.28C69.7803 72.28 73.0094 72.28 76.3363 72.28C76.3363 73.1776 76.3363 74.0752 76.3363 75C51.3255 75 26.3147 75 0.545967 75C0.545967 74.1024 0.545967 73.2048 0.545967 72.28C3.77506 72.28 7.00416 72.28 10.3311 72.28C10.3311 70.5409 10.3311 68.8019 10.3311 67.0101C9.69263 67.0311 9.69263 67.0311 9.04125 67.0526C6.54192 67.0793 4.4758 66.1524 2.64755 64.5451C0.381329 62.291 -0.0245849 59.4533 0.00111231 56.4596C0.001915 56.28 0.00271769 56.1004 0.0035447 55.9154C0.00562074 55.477 0.00853321 55.0386 0.0122318 54.6002ZM3.03673 57.3202C2.90595 59.3092 3.28248 60.8718 4.64141 62.4195C5.7498 63.4911 7.14331 64.2314 8.73199 64.32C9.20719 64.3217 9.67867 64.313 10.1532 64.2901C10.4583 62.9119 10.2291 61.6739 9.54024 60.4233C8.43623 58.8115 7.14044 57.941 5.20294 57.4298C4.45497 57.2847 3.79686 57.271 3.03673 57.3202ZM14.5308 59.5249C13.5813 60.6728 13.1501 61.8676 13.1666 63.3126C13.1682 63.4958 13.1698 63.679 13.1714 63.8678C13.1735 64.0071 13.1756 64.1465 13.1777 64.2901C15.0207 64.4127 16.7028 64.0744 18.1592 62.9301C19.4642 61.7418 20.3132 60.4259 20.4721 58.6802C20.4834 58.2258 20.4803 57.7749 20.4721 57.3202C18.1011 57.1901 16.1805 57.88 14.5308 59.5249ZM29.7235 57.3202C29.589 59.1329 29.9402 60.8519 31.1781 62.282C32.5825 63.6153 34.0775 64.3132 36.0505 64.322C36.373 64.3139 36.6955 64.3042 37.0179 64.2901C37.1327 62.3794 36.6997 60.8524 35.4167 59.3602C34.3067 58.2279 32.9675 57.451 31.3247 57.3202C30.7905 57.3092 30.2576 57.31 29.7235 57.3202ZM41.3989 59.4133C40.082 60.9208 39.8296 62.3825 39.8645 64.2901C41.8426 64.4089 43.5051 64.1022 45.0635 62.875C46.3789 61.6899 47.0583 60.2331 47.2019 58.5002C47.2031 58.104 47.1924 57.715 47.1588 57.3202C44.8277 57.2495 43.0429 57.7463 41.3989 59.4133ZM56.4102 57.3202C56.2993 59.1575 56.7524 60.8348 58.0114 62.2501C59.1312 63.3878 60.5743 64.251 62.2452 64.3067C62.4186 64.3047 62.5919 64.3028 62.7706 64.3007C63.0334 64.2984 63.0334 64.2984 63.3015 64.2961C63.5011 64.2931 63.5011 64.2931 63.7046 64.2901C63.8301 62.3817 63.5623 60.9451 62.2368 59.4664C60.9673 58.2177 59.5355 57.401 57.6806 57.2896C57.2556 57.2885 56.8345 57.2969 56.4102 57.3202ZM67.9745 59.5733C66.9982 60.7841 66.4152 62.1913 66.6068 63.7376C66.6472 63.9199 66.6875 64.1023 66.7291 64.2901C68.7325 64.4234 70.3354 64.0014 71.8879 62.7568C73.0257 61.6823 73.7894 60.348 73.8769 58.8103C73.8787 58.3124 73.8694 57.8176 73.8456 57.3202C71.5106 57.1689 69.5272 57.9013 67.9745 59.5733Z" fill="black"/>
<path d="M54.0974 0.880828C54.606 1.36598 55.0707 1.87568 55.5207 2.41081C55.7501 2.29379 55.7501 2.29379 55.9842 2.17441C59.5127 0.410773 63.2087 -0.234795 67.0849 0.880828C71.1091 2.21295 73.9828 4.92225 75.8506 8.54867C77.3164 11.5876 77.337 15.2614 76.1584 18.3906C75.4259 20.1452 74.3755 21.6619 72.956 22.9806C73.1972 23.4774 73.4749 23.885 73.8338 24.3113C73.9346 24.4334 74.0354 24.5555 74.1392 24.6812C74.3495 24.9338 74.5608 25.1857 74.773 25.4369C75.8634 26.7638 76.4533 28.1522 76.2981 29.8615C75.9561 31.872 74.8584 33.0744 73.1755 34.25C72.5535 34.6766 71.9258 35.0951 71.2971 35.5126C70.4339 36.0877 69.5871 36.6829 68.7417 37.2817C67.6779 38.0342 66.6102 38.7801 65.5314 39.5128C64.6973 40.0793 63.8668 40.6506 63.0374 41.2235C62.9026 41.3167 62.7677 41.4098 62.6288 41.5058C62.3537 41.6958 62.0786 41.8858 61.8035 42.0759C60.9999 42.6311 60.1959 43.1857 59.392 43.7404C58.5784 44.3018 57.765 44.8634 56.9519 45.4254C56.5507 45.7024 56.149 45.9787 55.7472 46.2551C55.2563 46.5931 54.7681 46.9344 54.2822 47.279C54.1718 47.3566 54.0613 47.4341 53.9474 47.514C53.6533 47.7204 53.3603 47.9283 53.0674 48.1363C51.5662 49.0403 50.1651 49.1502 48.4042 48.9903C46.6703 48.5864 45.6031 47.6518 44.6903 46.2384C44.6092 46.116 44.5282 45.9935 44.4447 45.8673C44.1609 45.4364 43.8805 45.0036 43.6006 44.5703C43.4888 44.3977 43.377 44.2251 43.2619 44.0472C42.6517 43.1038 42.0436 42.1592 41.4372 41.2135C40.6248 39.9474 39.801 38.6884 38.9749 37.4304C36.4791 37.5714 33.9888 37.7532 31.5002 37.983C30.8459 38.0432 30.1916 38.1003 29.5364 38.1503C25.3856 38.4345 25.3856 38.4345 22.0733 40.6604C21.0672 41.4245 20.1944 41.9477 18.8709 41.8504C18.0332 41.6236 17.4428 41.3076 16.911 40.6332C16.2771 39.5004 16.2829 37.9547 16.1508 36.698C16.1315 36.5199 16.1123 36.3419 16.0925 36.1584C16.0523 35.7843 16.0125 35.4102 15.9732 35.036C15.9133 34.4681 15.8514 33.9005 15.7894 33.3329C15.7503 32.9671 15.7114 32.6013 15.6726 32.2355C15.6543 32.0683 15.6359 31.9011 15.6171 31.7288C15.2679 28.3521 15.2679 28.3521 16.2022 27.2305C17.1817 26.5005 18.006 26.4204 19.2267 26.5505C20.0205 26.7738 20.765 27.103 21.5184 27.4271C23.8578 28.3648 26.4381 27.8259 28.8895 27.5705C29.2133 27.5377 29.537 27.5049 29.8607 27.4722C30.6454 27.3929 31.4299 27.3121 32.2142 27.2305C31.4117 25.8713 30.597 24.5268 29.7124 23.2143C27.0336 19.1985 27.0336 19.1985 27.2327 16.8607C27.677 15.1523 29.1112 14.138 30.5686 13.1951C30.8359 13.0185 31.103 12.8416 31.3699 12.6645C31.508 12.5729 31.646 12.4813 31.7883 12.387C32.5137 11.8994 33.2254 11.3943 33.9378 10.8895C35.0015 10.1369 36.0693 9.39106 37.1481 8.65837C37.9823 8.09182 38.8127 7.5205 39.6421 6.94764C39.8444 6.80791 39.8444 6.80791 40.0507 6.66537C40.3258 6.47534 40.6009 6.2853 40.876 6.09524C41.6789 5.54055 42.4822 4.98632 43.2856 4.43228C43.9734 3.95786 44.6606 3.48274 45.347 3.00647C45.4884 2.90851 45.6298 2.81056 45.7755 2.70964C46.0425 2.5246 46.3094 2.33935 46.5761 2.15382C48.8423 0.58484 51.4086 -1.05782 54.0974 0.880828ZM49.0603 3.88767C48.7756 4.09205 48.4909 4.29636 48.2061 4.50059C48.0617 4.60564 47.9174 4.71069 47.7686 4.81892C47.0992 5.30231 46.4173 5.76855 45.7355 6.23577C45.4686 6.41984 45.2017 6.60401 44.9349 6.78826C43.3337 7.89325 43.3337 7.89325 42.9335 8.16946C42.6664 8.35374 42.3994 8.53804 42.1324 8.72236C41.4678 9.18114 40.803 9.63956 40.1376 10.0972C38.6071 11.1506 37.0843 12.213 35.5676 13.2843C34.7108 13.8887 33.8494 14.486 32.9815 15.0757C32.7834 15.2107 32.5854 15.3457 32.3873 15.4807C32.0595 15.7039 31.7311 15.9262 31.4018 16.1475C31.2095 16.2796 31.2095 16.2796 31.0133 16.4144C30.9078 16.4858 30.8024 16.5573 30.6937 16.6309C30.3783 16.9111 30.233 17.1571 30.0793 17.5406C30.126 18.3592 30.3008 18.9087 30.791 19.5806C31.2614 19.3654 31.6892 19.1324 32.1149 18.8448C32.29 18.7268 32.29 18.7268 32.4687 18.6064C32.5939 18.5212 32.7191 18.4359 32.8481 18.3481C32.98 18.2588 33.1119 18.1694 33.2479 18.0773C34.4027 17.2919 35.5439 16.4892 36.6832 15.6835C37.6031 15.0334 38.5284 14.3917 39.461 13.7583C40.2951 13.1918 41.1255 12.6204 41.9549 12.0476C42.0898 11.9544 42.2246 11.8613 42.3636 11.7653C42.6387 11.5753 42.9138 11.3852 43.1888 11.1952C43.8596 10.7318 44.5307 10.2688 45.2018 9.80573C45.4687 9.62157 45.7355 9.4374 46.0024 9.25323C48.4042 7.59575 50.806 5.93827 53.2078 4.28079C53.0381 4.08542 52.8674 3.89076 52.6963 3.69642C52.6014 3.58795 52.5064 3.47948 52.4086 3.36771C52.0196 2.96611 51.8077 2.92379 51.232 2.84975C50.2875 2.94661 49.7951 3.33985 49.0603 3.88767ZM57.4777 4.62079C57.7671 5.24194 58.1657 5.74209 58.6008 6.27827C58.7169 6.42144 58.7169 6.42144 58.8354 6.56751C59.5618 7.45832 60.3079 8.33373 61.0556 9.20825C61.6803 9.93954 62.2962 10.6766 62.904 11.4207C63.6053 12.279 64.3185 13.1271 65.039 13.9707C65.7658 14.8221 66.4867 15.6772 67.1961 16.5419C67.2747 16.6377 67.3533 16.7334 67.4342 16.8321C67.8502 17.3397 68.2644 17.8486 68.6778 18.3581C68.7648 18.4649 68.8518 18.5717 68.9415 18.6817C69.1065 18.8844 69.2711 19.0874 69.4351 19.2908C69.9208 19.8864 70.4311 20.4184 70.999 20.9406C73.0945 18.7303 74.1335 16.2295 74.0791 13.2429C73.8445 10.575 72.6332 8.47011 70.8211 6.49077C70.6628 6.31228 70.6628 6.31228 70.5014 6.13018C68.5545 4.09097 65.9013 3.22971 63.0785 3.09147C61.0216 3.08926 59.2888 3.73917 57.4777 4.62079ZM54.1863 6.8965C54.0595 6.98482 53.9327 7.07313 53.802 7.16412C53.6646 7.26098 53.5273 7.35784 53.3857 7.45763C53.0929 7.66196 52.8001 7.86627 52.5073 8.07055C52.3573 8.1756 52.2073 8.28065 52.0528 8.38888C51.3727 8.86427 50.689 9.33492 50.0054 9.80573C49.7385 9.98987 49.4717 10.174 49.2048 10.3582C47.6036 11.4632 47.6036 11.4632 47.2034 11.7394C46.9363 11.9237 46.6693 12.108 46.4023 12.2923C45.7377 12.7511 45.0729 13.2095 44.4075 13.6672C43.0208 14.6216 41.6392 15.5821 40.2648 16.5525C39.3022 17.2321 38.3376 17.9081 37.3626 18.5713C37.2666 18.6367 37.1706 18.7022 37.0717 18.7697C36.6211 19.0768 36.1697 19.3828 35.7166 19.6866C35.2747 19.983 34.8342 20.2811 34.3937 20.5794C34.2535 20.6725 34.1134 20.7657 33.969 20.8616C33.8385 20.9504 33.708 21.0391 33.5736 21.1305C33.3989 21.2478 33.3989 21.2478 33.2207 21.3675C32.8713 21.6674 32.7011 21.8672 32.5701 22.3006C32.7257 22.7086 32.7257 22.7086 33.0253 23.116C33.133 23.2769 33.2408 23.4377 33.3519 23.6034C33.4718 23.7765 33.5918 23.9497 33.7154 24.1281C33.9656 24.4995 34.2158 24.8709 34.4659 25.2424C34.5963 25.434 34.7267 25.6257 34.8572 25.8173C35.436 26.6717 35.999 27.5353 36.562 28.3993C36.671 28.5658 36.78 28.7323 36.8922 28.9039C37.7227 30.1733 38.5444 31.4478 39.3641 32.7236C40.2624 34.1215 41.1675 35.5148 42.0871 36.9C42.6882 37.8058 43.285 38.714 43.8793 39.6239C44.1071 39.9726 44.3352 40.3212 44.5634 40.6696C45.1025 41.4925 45.6394 42.3164 46.1706 43.144C46.3591 43.4353 46.5477 43.7266 46.7363 44.0178C46.8624 44.2167 46.8624 44.2167 46.991 44.4196C47.5529 45.2832 48.0683 45.9367 49.1159 46.2703C50.6971 46.3844 51.6704 45.6266 52.8854 44.7722C53.0241 44.6756 53.1628 44.579 53.3056 44.4795C54.4725 43.6655 55.6343 42.8448 56.7964 42.0245C57.8127 41.3078 58.8368 40.6026 59.8663 39.9034C60.5999 39.4049 61.3294 38.9012 62.0589 38.3973C62.1938 38.3041 62.3287 38.211 62.4676 38.115C62.7427 37.925 63.0178 37.7349 63.2929 37.5449C63.8309 37.1732 64.3691 36.8018 64.9073 36.4304C65.1728 36.2472 65.4382 36.064 65.7036 35.8808C66.3837 35.4113 67.0641 34.9423 67.7452 34.474C68.4143 34.0139 69.0823 33.5524 69.7495 33.0897C69.9801 32.93 70.211 32.7707 70.4422 32.6118C72.1181 31.4988 72.1181 31.4988 73.3119 29.9505C73.4489 28.4054 72.7498 27.5302 71.7426 26.3808C71.6366 26.2615 71.5307 26.1422 71.4215 26.0193C70.6661 25.1563 69.9214 24.2906 69.2088 23.395C68.4549 22.4479 67.6748 21.5239 66.8868 20.6026C66.2624 19.8714 65.6467 19.1346 65.039 18.3906C64.3377 17.5324 63.6245 16.6843 62.904 15.8407C61.7687 14.5107 60.6584 13.1631 59.5532 11.8102C58.4756 10.4919 57.3848 9.18525 56.2748 7.89167C56.1817 7.78284 56.0885 7.67401 55.9926 7.56189C55.91 7.46575 55.8274 7.36962 55.7423 7.27057C55.5366 7.0201 55.3497 6.75571 55.1649 6.49077C54.702 6.49077 54.5578 6.6359 54.1863 6.8965ZM18.3371 29.4405C18.6894 32.5821 19.0417 35.7236 19.4046 38.9604C19.8743 38.6238 20.344 38.2872 20.8279 37.9404C21.0962 37.7879 21.3644 37.6354 21.6327 37.4829C22.0667 37.1701 22.2286 37.029 22.3355 36.5148C22.324 36.0191 22.2652 35.5508 22.1845 35.0611C22.1488 34.8014 22.1488 34.8014 22.1125 34.5366C22.0645 34.189 22.0139 33.8417 21.9607 33.4948C21.9028 33.0653 21.8732 32.6494 21.862 32.2169C21.8299 31.5703 21.7921 31.0614 21.5395 30.4605C20.5771 29.7548 19.5111 29.6275 18.3371 29.4405ZM31.014 30.1364C30.8342 30.1553 30.6543 30.1742 30.4689 30.1936C29.8979 30.2536 29.327 30.3146 28.7561 30.3755C28.3675 30.4165 27.9789 30.4575 27.5903 30.4983C26.6408 30.5984 25.6913 30.6992 24.742 30.8005C24.862 32.7561 24.862 32.7561 25.1089 34.6998C25.1923 35.2151 25.1923 35.2151 25.2757 35.7304C27.845 35.627 30.3919 35.3877 32.9481 35.1248C33.345 35.0846 33.7418 35.0444 34.1386 35.0043C35.0985 34.9071 36.0582 34.8091 37.0179 34.7104C36.9169 34.074 36.7377 33.6351 36.3743 33.0948C36.281 32.9549 36.1876 32.815 36.0915 32.6708C35.9446 32.455 35.9446 32.455 35.7947 32.2349C35.6499 32.0181 35.6499 32.0181 35.5021 31.7969C35.2396 31.4059 34.9765 31.0159 34.705 30.6305C34.6321 30.503 34.5591 30.3754 34.4839 30.2441C34.1798 29.8976 34.1798 29.8976 33.6347 29.8964C32.7591 29.9632 31.8869 30.0424 31.014 30.1364Z" fill="black"/>
<path d="M14.0673 39.3004C14.5043 39.9268 14.5478 40.4427 14.4231 41.1704C14.104 41.6481 13.886 41.937 13.3556 42.1904C12.6346 42.2822 12.3705 42.2485 11.7766 41.8291C11.3986 41.3404 11.3986 41.3404 11.2985 40.841C11.4468 40.0695 11.8007 39.5452 12.4327 39.0454C13.0497 38.9107 13.4885 39.0854 14.0673 39.3004Z" fill="black"/>
<path d="M10.8426 44.666C11.4223 44.6831 11.5474 44.7181 12.0213 45.0803C12.3647 45.7366 12.4323 46.231 12.2881 46.9503C12.0324 47.4603 12.0324 47.4603 11.5765 47.8003C11.0278 47.8987 10.5214 47.9156 9.97529 47.8003C9.55585 47.4841 9.45088 47.3183 9.28588 46.8228C9.25769 46.1225 9.46206 45.6974 9.79737 45.0803C10.1532 44.7403 10.1532 44.7403 10.8426 44.666Z" fill="black"/>
<path d="M11.3986 31.8205C11.9101 32.1711 11.9101 32.1711 12.2881 32.6705C12.3882 33.2761 12.3882 33.2761 12.2881 33.8605C11.8236 34.4227 11.4651 34.6793 10.7203 34.7742C10.1532 34.7105 10.1532 34.7105 9.6417 34.3492C9.26364 33.8605 9.26364 33.8605 9.16356 33.3505C9.28563 32.7284 9.51758 32.4407 9.97529 31.9905C10.4892 31.745 10.8286 31.7564 11.3986 31.8205Z" fill="black"/>
<path d="M10.1532 50.5947C10.844 50.7184 11.125 50.85 11.5765 51.3703C11.7187 52.0691 11.6824 52.6754 11.3763 53.3252C10.9049 53.6857 10.5764 53.7388 9.97529 53.7502C9.34743 53.4775 9.11638 53.2842 8.7299 52.7303C8.62839 51.9819 8.6396 51.6595 9.10797 51.0409C9.61946 50.6903 9.61946 50.6903 10.1532 50.5947Z" fill="black"/>
<path d="M7.30661 35.5604C7.6402 35.7517 7.64019 35.7517 7.84035 36.0704C7.9845 36.6532 8.08027 37.0777 7.88482 37.6535C7.66243 37.9404 7.66243 37.9404 7.1287 38.2804C6.34556 38.3774 6.00814 38.3667 5.3607 37.9192C4.99376 37.4304 4.99376 37.4304 4.89368 36.9204C5.01574 36.2984 5.2477 36.0107 5.70541 35.5604C6.26583 35.2927 6.70801 35.44 7.30661 35.5604Z" fill="black"/>
<path d="M4.81585 40.4904C5.17167 40.7666 5.17167 40.7666 5.34958 41.1704C5.37287 41.6493 5.32251 42.0726 5.17167 42.5304C4.7617 42.9491 4.34767 43.1583 3.74838 43.2104C3.23922 43.0798 2.92331 42.9238 2.52523 42.5941C2.22474 41.9879 2.31616 41.466 2.50299 40.8304C3.13865 39.9745 3.87989 40.155 4.81585 40.4904Z" fill="black"/>
<path d="M2.85882 45.4947C3.54959 45.6185 3.83062 45.7501 4.28211 46.2703C4.40944 46.8051 4.40821 47.2654 4.28211 47.8003C3.91517 48.2466 3.91517 48.2466 3.39255 48.4803C2.74953 48.4697 2.3304 48.4445 1.81359 48.0659C1.39634 47.5122 1.35193 47.1193 1.43553 46.4403C1.87326 45.8744 2.12869 45.6255 2.85882 45.4947Z" fill="black"/>
</svg>
