<svg width="50" height="32" viewBox="0 0 50 32" fill="none" xmlns="http://www.w3.org/2000/svg">
<path d="M29.5499 12.6227V3.38273C29.5499 1.30025 29.1875 0.882751 27.1979 0.882751L21.558 0.750253C19.8012 0.750253 18.9228 0.750253 18.5676 1.34275C18.2124 1.93524 18.606 2.74774 19.3908 4.36772C19.8276 5.26771 20.0628 5.92021 20.0628 6.9302V13.5801C20.0628 15.6801 20.0628 16.7326 19.2948 17.0451C18.5268 17.3551 17.8908 16.6501 16.614 15.2401C13.494 11.7802 11.8668 7.4602 10.7988 2.75024C10.578 1.77524 10.4676 1.28775 10.1364 1.01775C9.80522 0.747752 9.33243 0.750253 8.39163 0.750253H3.11166C1.95487 0.750253 1.37647 0.750253 1.01407 1.17525C0.654077 1.60275 0.723676 2.14774 0.862876 3.23523C2.13007 13.0526 10.4172 29.15 25.7267 30.685C28.4387 30.955 29.5499 30.1925 29.5499 27.0975C29.5499 25.3425 29.5139 22.5076 31.6331 22.1351C32.7443 21.9401 33.4907 22.3526 34.7315 23.4351C36.8819 25.315 38.0099 27.61 38.7947 29.3525C39.3154 30.5075 39.7019 30.75 40.9258 30.75H45.9034C48.4186 30.75 49.1026 30.11 47.9818 27.65C46.7151 24.8912 44.9218 22.4303 42.7114 20.4176C41.185 19.0501 40.4242 18.3676 40.3834 17.8626C40.3378 17.3601 40.897 16.6476 42.0154 15.2226C44.1754 12.4677 47.1178 8.14519 48.4906 3.55773C49.1722 1.28275 48.5314 0.750253 46.321 0.750253H41.8498C39.6827 0.750253 39.6851 0.672753 39.1739 3.23273C38.3435 7.3852 35.6267 11.3777 33.0731 14.0951C31.8611 15.3851 31.1291 16.1626 30.3731 15.8451C29.6171 15.5276 29.5499 14.5626 29.5499 12.6227Z" fill="#F8FAFC" stroke="#F8FAFC" stroke-width="1.5" stroke-linecap="round" stroke-linejoin="round"/>
</svg>
